<svg width="32" height="25" viewBox="0 0 32 25" fill="none" xmlns="http://www.w3.org/2000/svg">
<path d="M0.0795456 25V18.0455C0.0795456 16.0455 0.454546 13.9659 1.20455 11.8068C1.97727 9.625 3.02273 7.56818 4.34091 5.63636C5.68182 3.68182 7.18182 2.03409 8.84091 0.693178L14.5682 4.40909C13.2273 6.43181 12.1023 8.54545 11.1932 10.75C10.3068 12.9318 9.875 15.3409 9.89773 17.9773V25H0.0795456ZM17.3636 25V18.0455C17.3636 16.0455 17.7386 13.9659 18.4886 11.8068C19.2614 9.625 20.3068 7.56818 21.625 5.63636C22.9659 3.68182 24.4659 2.03409 26.125 0.693178L31.8523 4.40909C30.5114 6.43181 29.3864 8.54545 28.4773 10.75C27.5909 12.9318 27.1591 15.3409 27.1818 17.9773V25H17.3636Z" fill="#2991F1"/>
</svg>
