<svg width="90" height="90" viewBox="0 0 90 90" fill="none" xmlns="http://www.w3.org/2000/svg">
<circle cx="45" cy="45" r="45" fill="#2991F1"/>
<g clip-path="url(#clip0_402_1946)">
<path d="M28 56.9375V31.625C28 30.1332 28.5926 28.7024 29.6475 27.6475C30.7024 26.5926 32.1332 26 33.625 26H59.875C60.3723 26 60.8492 26.1975 61.2008 26.5492C61.5525 26.9008 61.75 27.3777 61.75 27.875V61.625C61.75 62.1223 61.5525 62.5992 61.2008 62.9508C60.8492 63.3025 60.3723 63.5 59.875 63.5H34.5625C32.822 63.5 31.1528 62.8086 29.9221 61.5779C28.6914 60.3472 28 58.678 28 56.9375ZM58 59.75V54.125H34.5625C33.8166 54.125 33.1012 54.4213 32.5738 54.9488C32.0463 55.4762 31.75 56.1916 31.75 56.9375C31.75 57.6834 32.0463 58.3988 32.5738 58.9262C33.1012 59.4537 33.8166 59.75 34.5625 59.75H58ZM31.75 51.0069C32.6288 50.5896 33.5897 50.3737 34.5625 50.375H58V29.75H33.625C33.1277 29.75 32.6508 29.9475 32.2992 30.2992C31.9475 30.6508 31.75 31.1277 31.75 31.625V51.0069Z" fill="white"/>
</g>
<defs>
<clipPath id="clip0_402_1946">
<rect width="45" height="45" fill="white" transform="translate(25 25)"/>
</clipPath>
</defs>
</svg>
