<svg width="17" height="10" viewBox="0 0 17 10" fill="none" xmlns="http://www.w3.org/2000/svg">
<path d="M5.61932 5.32955V0.272727H7.67614V9H5.68182V7.44886H5.59091C5.39394 7.9375 5.07008 8.33712 4.61932 8.64773C4.17235 8.95833 3.62121 9.11364 2.96591 9.11364C2.39394 9.11364 1.88826 8.98674 1.44886 8.73295C1.01326 8.47538 0.672349 8.10227 0.426136 7.61364C0.179924 7.12121 0.0568182 6.52652 0.0568182 5.82955V0.272727H2.11364V5.51136C2.11364 6.06439 2.26515 6.50379 2.56818 6.82955C2.87121 7.1553 3.26894 7.31818 3.76136 7.31818C4.06439 7.31818 4.35795 7.24432 4.64205 7.09659C4.92614 6.94886 5.15909 6.72917 5.34091 6.4375C5.52652 6.14205 5.61932 5.77273 5.61932 5.32955ZM9.67756 9V7.69318L14.1776 2.05114V1.97727H9.82528V0.272727H16.6946V1.67614L12.4105 7.22159V7.29545H16.8423V9H9.67756Z" fill="#9C9C9C"/>
</svg>
