<svg width="20" height="27" viewBox="0 0 20 27" fill="none" xmlns="http://www.w3.org/2000/svg">
<path d="M0 26.5C0 23.8478 1.05357 21.3043 2.92893 19.4289C4.8043 17.5536 7.34784 16.5 10 16.5C12.6522 16.5 15.1957 17.5536 17.0711 19.4289C18.9464 21.3043 20 23.8478 20 26.5H17.5C17.5 24.5109 16.7098 22.6032 15.3033 21.1967C13.8968 19.7902 11.9891 19 10 19C8.01088 19 6.10322 19.7902 4.6967 21.1967C3.29018 22.6032 2.5 24.5109 2.5 26.5H0ZM10 15.25C5.85625 15.25 2.5 11.8938 2.5 7.75C2.5 3.60625 5.85625 0.25 10 0.25C14.1438 0.25 17.5 3.60625 17.5 7.75C17.5 11.8938 14.1438 15.25 10 15.25ZM10 12.75C12.7625 12.75 15 10.5125 15 7.75C15 4.9875 12.7625 2.75 10 2.75C7.2375 2.75 5 4.9875 5 7.75C5 10.5125 7.2375 12.75 10 12.75Z" fill="black"/>
</svg>
