<svg width="24" height="26" viewBox="0 0 24 26" fill="none" xmlns="http://www.w3.org/2000/svg">
<path d="M0.75 21.125V4.25C0.75 3.25544 1.14509 2.30161 1.84835 1.59835C2.55161 0.895088 3.50544 0.5 4.5 0.5H22C22.3315 0.5 22.6495 0.631696 22.8839 0.866116C23.1183 1.10054 23.25 1.41848 23.25 1.75V24.25C23.25 24.5815 23.1183 24.8995 22.8839 25.1339C22.6495 25.3683 22.3315 25.5 22 25.5H5.125C3.96468 25.5 2.85188 25.0391 2.03141 24.2186C1.21094 23.3981 0.75 22.2853 0.75 21.125ZM20.75 23V19.25H5.125C4.62772 19.25 4.15081 19.4475 3.79917 19.7992C3.44754 20.1508 3.25 20.6277 3.25 21.125C3.25 21.6223 3.44754 22.0992 3.79917 22.4508C4.15081 22.8025 4.62772 23 5.125 23H20.75ZM3.25 17.1712C3.83586 16.893 4.47644 16.7491 5.125 16.75H20.75V3H4.5C4.16848 3 3.85054 3.1317 3.61612 3.36612C3.3817 3.60054 3.25 3.91848 3.25 4.25V17.1712Z" fill="#1E1E1E"/>
</svg>
